<?xml version="1.0" encoding="UTF-8"?>
<svg version="1.1" xmlns="http://www.w3.org/2000/svg" width="500" height="500">
<path d="M0 0 C0 7.92 0 15.84 0 24 C-8.68930476 28.42087435 -17.31744161 32.66053077 -26.31445312 36.42211914 C-29.8745643 37.93043819 -33.37837801 39.54511471 -36.87890625 41.1875 C-37.52107086 41.48842056 -38.16323547 41.78934113 -38.82485962 42.09938049 C-40.88391837 43.06481538 -42.942038 44.03222967 -45 45 C-46.37475122 45.64576184 -47.74950708 46.29151377 -49.12426758 46.93725586 C-53.37555731 48.93511797 -57.62534698 50.93615943 -61.875 52.9375 C-63.30077026 53.6087473 -64.72655149 54.27997129 -66.15234375 54.95117188 C-66.85901184 55.28396149 -67.56567993 55.6167511 -68.29376221 55.95962524 C-69.70972543 56.62601205 -71.12602242 57.29169012 -72.54266357 57.95663452 C-76.28734962 59.71558387 -80.02385509 61.48974252 -83.75097656 63.28564453 C-84.52643829 63.65693985 -85.30190002 64.02823517 -86.1008606 64.41078186 C-87.59049313 65.12436117 -89.0779732 65.84245639 -90.56295776 66.56565857 C-95.66254324 69 -95.66254324 69 -99 69 C-99 69.66 -99 70.32 -99 71 C-100.92057292 71.71614583 -102.84114583 72.43229167 -104.76171875 73.1484375 C-107.1861752 74.07083105 -109.59254058 75.03422699 -112 76 C-111.96172129 87.94538855 -111.90204146 99.89046908 -111.81609726 111.83561516 C-111.77682646 117.38407332 -111.74453894 122.93237761 -111.72900391 128.48095703 C-111.71370172 133.84987632 -111.67902049 139.21837197 -111.63169098 144.58710098 C-111.61701557 146.62084363 -111.60896708 148.65464681 -111.60811615 150.68844223 C-111.57567105 189.40242942 -95.60507761 220.3023114 -69 248 C-67.82050781 249.24136719 -67.82050781 249.24136719 -66.6171875 250.5078125 C-56.76070792 260.64691515 -45.46119074 268.65265443 -33.89013672 276.6796875 C-32.34373539 277.75989137 -30.81220888 278.8613622 -29.28515625 279.96875 C-24.11477009 283.71617518 -18.73313431 287.04756395 -13.25 290.3125 C-12.528125 290.74578613 -11.80625 291.17907227 -11.0625 291.62548828 C-5.32012749 295.0153466 -5.32012749 295.0153466 1 297 C3.7255361 296.17086402 3.7255361 296.17086402 6.25 294.5 C7.66732422 293.66275391 7.66732422 293.66275391 9.11328125 292.80859375 C11.01064403 291.61985361 12.90401677 290.4247166 14.79296875 289.22265625 C15.66566406 288.67480469 16.53835938 288.12695312 17.4375 287.5625 C18.61119141 286.79099609 18.61119141 286.79099609 19.80859375 286.00390625 C22 285 22 285 23.97363281 285.23266602 C26.44584752 286.16883118 27.1543384 287.09388909 28.61328125 289.2734375 C29.05607422 289.9334375 29.49886719 290.5934375 29.95507812 291.2734375 C30.40302734 291.96695312 30.85097656 292.66046875 31.3125 293.375 C31.77978516 294.06078125 32.24707031 294.7465625 32.72851562 295.453125 C35.25554321 299.29032494 35.25554321 299.29032494 36 301 C34.80752754 304.57741738 34.15648904 304.76249854 30.94921875 306.48828125 C30.11076416 306.94485107 29.27230957 307.4014209 28.40844727 307.87182617 C27.51053467 308.34724854 26.61262207 308.8226709 25.6875 309.3125 C24.77991943 309.80016846 23.87233887 310.28783691 22.93725586 310.7902832 C20.29669534 312.20355088 17.64888198 313.60241127 15 315 C13.7264273 315.6846444 12.45297005 316.36950364 11.1796875 317.0546875 C2.49547739 321.60355946 2.49547739 321.60355946 -2 321 C-4.69140625 319.6796875 -4.69140625 319.6796875 -7.5625 317.875 C-11.49676428 315.47337993 -15.39259327 313.27446454 -19.5625 311.3125 C-41.32720188 300.60107604 -61.24107686 285.12022356 -79.00390625 268.75 C-80.88450675 266.95218021 -80.88450675 266.95218021 -83 266 C-83 265.34 -83 264.68 -83 264 C-83.66 264 -84.32 264 -85 264 C-85 263.34 -85 262.68 -85 262 C-85.99 261.67 -86.98 261.34 -88 261 C-88 260.34 -88 259.68 -88 259 C-88.66 259 -89.32 259 -90 259 C-112.56868895 238.4584388 -131.21663598 202.72916515 -133.18027115 172.1970005 C-133.24333453 169.25549196 -133.24785077 166.32027936 -133.22705078 163.37817383 C-133.22748886 161.72253418 -133.22748886 161.72253418 -133.22793579 160.03344727 C-133.22655454 156.4245589 -133.21105042 152.81588307 -133.1953125 149.20703125 C-133.19157809 146.68926608 -133.18873314 144.17149945 -133.18673706 141.6537323 C-133.17990932 135.72897356 -133.16418422 129.80428178 -133.14403808 123.87955731 C-133.11937471 116.46333806 -133.10872336 109.04710922 -133.09765625 101.63085938 C-133.07626573 88.420535 -133.04256014 75.21027227 -133 62 C-128.41221731 59.36188032 -123.81050346 56.84088194 -119.0625 54.5 C-117.64958486 53.79979128 -116.23683522 53.09924856 -114.82421875 52.3984375 C-114.0564209 52.0178418 -113.28862305 51.63724609 -112.49755859 51.24511719 C-109.79089763 49.89575541 -107.09233323 48.5310465 -104.39453125 47.1640625 C-92.85184593 41.32826733 -81.24232402 35.72664345 -69.43359375 30.44921875 C-59.90442201 26.18050291 -50.47281154 21.69609885 -41.02734375 17.24609375 C-39.00680412 16.29489791 -36.98621342 15.34381071 -34.96557617 14.39282227 C-33.61136972 13.75492533 -32.2575293 13.11625078 -30.90405273 12.47680664 C-23.70478168 9.07664605 -16.48940735 5.71900692 -9.19140625 2.53515625 C-7.51026733 1.80051147 -7.51026733 1.80051147 -5.79516602 1.05102539 C-3 0 -3 0 0 0 Z " fill="#D4A552" transform="translate(256,77)"/>
<path d="M0 0 C0.73726822 -0.00189835 1.47453644 -0.00379669 2.23414612 -0.00575256 C4.6727258 -0.00945707 7.11100725 0.00125054 9.54956055 0.01245117 C11.25668808 0.01364472 12.96381628 0.01409577 14.67094421 0.01383972 C18.25625706 0.01540475 21.8414701 0.02368736 25.42675781 0.03710938 C29.98094832 0.05395769 34.53502778 0.05792757 39.0892458 0.05716419 C42.62156703 0.05743896 46.15386486 0.06297106 49.68617821 0.07016563 C51.36238618 0.07331025 53.03859676 0.07530966 54.71480751 0.07605934 C89.48576918 0.10859202 89.48576918 0.10859202 104.6237793 11.24291992 C105.6550293 11.98541992 106.6862793 12.72791992 107.7487793 13.49291992 C119.16510497 24.41288361 123.17431259 37.8533285 123.6237793 53.24291992 C123.08982142 64.94891944 118.30897276 77.31817913 110.6237793 86.24291992 C109.9637793 86.24291992 109.3037793 86.24291992 108.6237793 86.24291992 C108.3762793 86.84104492 108.1287793 87.43916992 107.8737793 88.05541992 C106.44305404 90.55918911 105.05462109 91.7236438 102.6237793 93.24291992 C101.9637793 93.24291992 101.3037793 93.24291992 100.6237793 93.24291992 C100.6237793 93.90291992 100.6237793 94.56291992 100.6237793 95.24291992 C93.8737793 99.24291992 93.8737793 99.24291992 91.6237793 99.24291992 C94.41169677 104.47026518 97.67568284 109.15147076 101.1862793 113.91870117 C104.20376283 118.02027211 107.16904258 122.15849753 110.1237793 126.30541992 C110.66454102 127.0561377 111.20530273 127.80685547 111.76245117 128.58032227 C112.26325195 129.28495605 112.76405273 129.98958984 113.2800293 130.71557617 C113.95775391 131.66315796 113.95775391 131.66315796 114.64916992 132.62988281 C115.6237793 134.24291992 115.6237793 134.24291992 115.6237793 136.24291992 C116.2837793 136.24291992 116.9437793 136.24291992 117.6237793 136.24291992 C117.6237793 137.23291992 117.6237793 138.22291992 117.6237793 139.24291992 C118.2837793 139.24291992 118.9437793 139.24291992 119.6237793 139.24291992 C120.90284776 140.96335708 122.09588921 142.7480006 123.2487793 144.55541992 C125.87083546 148.5871837 128.52444968 152.55580852 131.3737793 156.43041992 C134.97340571 161.3279196 138.49560361 166.27625338 141.9987793 171.24291992 C142.52310547 171.98566162 143.04743164 172.72840332 143.58764648 173.49365234 C149.6237793 182.05862162 149.6237793 182.05862162 149.6237793 184.18041992 C148.08421134 187.35577883 145.6238534 188.52859186 142.6237793 190.24291992 C141.9637793 190.24291992 141.3037793 190.24291992 140.6237793 190.24291992 C140.6237793 190.90291992 140.6237793 191.56291992 140.6237793 192.24291992 C137.6537793 193.23291992 137.6537793 193.23291992 134.6237793 194.24291992 C134.6237793 194.90291992 134.6237793 195.56291992 134.6237793 196.24291992 C131.25694015 198.67452597 129.89027565 199.24291992 125.6237793 199.24291992 C123.90046441 197.24928113 122.49916988 195.3672961 121.0612793 193.18041992 C120.17317301 191.88271146 119.28380792 190.58586377 118.39331055 189.28979492 C117.70809326 188.28142578 117.70809326 188.28142578 117.0090332 187.25268555 C114.82942831 184.090453 112.53763307 181.01398022 110.2487793 177.93041992 C105.71381369 171.78067051 101.2923661 165.55581673 96.89819336 159.30493164 C93.51709788 154.49795343 90.08817012 149.72968013 86.61987305 144.98510742 C80.86891726 137.08457716 75.19906791 129.12264304 69.62768555 121.09448242 C67.945116 118.70018268 66.24107458 116.3249331 64.52612305 113.95385742 C63.97682129 113.18920166 63.42751953 112.4245459 62.86157227 111.63671875 C61.75816164 110.10123812 60.6492357 108.56970353 59.53442383 107.04248047 C58.77621338 105.98347534 58.77621338 105.98347534 58.00268555 104.90307617 C57.54450439 104.27022705 57.08632324 103.63737793 56.61425781 102.98535156 C55.6237793 101.24291992 55.6237793 101.24291992 55.6237793 98.24291992 C57.19799805 97.13745117 57.19799805 97.13745117 59.3112793 96.05541992 C65.18749856 92.59209069 68.04004604 87.70319048 69.9362793 81.24291992 C70.1631543 80.25291992 70.3900293 79.26291992 70.6237793 78.24291992 C71.8200293 77.97479492 73.0162793 77.70666992 74.2487793 77.43041992 C78.00983301 76.49847741 81.19889888 75.07483271 84.6237793 73.24291992 C85.6137793 72.91291992 86.6037793 72.58291992 87.6237793 72.24291992 C88.65029303 70.52772245 88.65029303 70.52772245 89.6237793 68.24291992 C90.2837793 67.23229492 90.9437793 66.22166992 91.6237793 65.18041992 C94.76720435 59.59607769 96.33964956 53.61016154 94.9909668 47.26635742 C92.64536201 40.41423635 90.142881 35.39802647 83.5612793 31.99291992 C78.90275699 29.81119355 75.39991959 29.14638466 70.23144531 29.29150391 C68.89565282 29.32425809 67.55984121 29.35623962 66.22401428 29.38755798 C65.51650591 29.40520643 64.80899754 29.42285488 64.08004951 29.44103813 C59.52097701 29.5403514 54.96077991 29.56439135 50.40083408 29.59863186 C46.40410475 29.63282896 42.41193756 29.69553636 38.41699219 29.82226562 C10.37130537 30.67666947 10.37130537 30.67666947 3.9543457 24.79418945 C1.22216452 21.53715501 -0.70222381 18.07876352 -2.42367554 14.20559692 C-3.90338343 11.15672454 -5.93540398 8.81971833 -8.1262207 6.24291992 C-8.76043945 5.45916992 -9.3946582 4.67541992 -10.0480957 3.86791992 C-10.70551758 3.06354492 -10.70551758 3.06354492 -11.3762207 2.24291992 C-7.7138574 -0.1006745 -4.20592248 -0.03418403 0 0 Z " fill="#690B20" transform="translate(177.376220703125,171.757080078125)"/>
<path d="M0 0 C32.90626995 0 64.69445118 20.36203844 88 42 C88.84498047 42.78117187 88.84498047 42.78117187 89.70703125 43.578125 C91.95505226 45.72896931 92.99464412 46.98393235 94 50 C94.66 50 95.32 50 96 50 C97.82293985 52.21292201 99.51795618 54.4248439 101.1875 56.75 C101.68217773 57.43594238 102.17685547 58.12188477 102.68652344 58.82861328 C110.58861735 69.91886446 116.10867332 81.35580606 121 94 C121.26143799 94.64493408 121.52287598 95.28986816 121.79223633 95.9543457 C123.82958214 101.10135842 125.1134066 106.26259553 126.1875 111.6875 C126.44901855 112.99219238 126.44901855 112.99219238 126.71582031 114.32324219 C128.03427336 121.30252886 128.46690425 127.8926797 128 135 C124.52085059 135.02887814 121.04173169 135.04675687 117.5625 135.0625 C116.56927734 135.07087891 115.57605469 135.07925781 114.55273438 135.08789062 C113.60849609 135.09111328 112.66425781 135.09433594 111.69140625 135.09765625 C110.81685791 135.10289307 109.94230957 135.10812988 109.04125977 135.11352539 C107 135 107 135 106 134 C105.78549755 132.33070368 105.5777159 130.66024798 105.40527344 128.98608398 C102.56341104 101.4372228 90.81341877 73.73532687 69.1328125 55.72265625 C68.5361377 55.24707275 67.93946289 54.77148926 67.32470703 54.28149414 C66.88755371 53.85860107 66.45040039 53.43570801 66 53 C66 52.34 66 51.68 66 51 C65.46503906 50.75765625 64.93007813 50.5153125 64.37890625 50.265625 C61.37269757 48.66626274 58.70816201 46.72952523 55.9375 44.75 C38.88760161 32.7839407 20.27853859 25.40837795 0 21 C0 14.07 0 7.14 0 0 Z " fill="#DAAC58" transform="translate(274,91)"/>
<path d="M0 0 C8.63293846 2.57718604 16.46713878 7.82026641 23 14 C23 14.66 23 15.32 23 16 C23.598125 16.268125 24.19625 16.53625 24.8125 16.8125 C26.99847854 17.99917406 28.41332594 19.09599113 30 21 C30 21.66 30 22.32 30 23 C30.66 23 31.32 23 32 23 C48.31653193 43.10478147 56.02472297 67.57427086 53.69140625 93.41796875 C51.24553753 112.91998395 43.91789712 129.34006281 31 144 C30.34 144.99 29.68 145.98 29 147 C28.34 147 27.68 147 27 147 C27 147.66 27 148.32 27 149 C26.34 149 25.68 149 25 149 C25 149.66 25 150.32 25 151 C23.02 151.99 23.02 151.99 21 153 C19.67925885 151.42353449 18.36868776 149.83854469 17.0625 148.25 C16.33160156 147.36828125 15.60070312 146.4865625 14.84765625 145.578125 C11.9502885 141.53528628 11.9502885 141.53528628 12 139 C13.87890625 136.5546875 13.87890625 136.5546875 16.5625 133.875 C29.00539714 120.89657479 35.81519018 103.11193278 36.375 85.125 C35.80417716 67.21543325 30.4184562 50.89095656 19 37 C18.46890625 36.30648437 17.9378125 35.61296875 17.390625 34.8984375 C11.01450094 26.97562988 2.18646653 20.26859873 -7 16 C-5.26017005 10.18738629 -3.1889511 5.16830006 0 0 Z " fill="#D7A853" transform="translate(302,150)"/>
<path d="M0 0 C0.84498047 -0.00128906 1.68996094 -0.00257813 2.56054688 -0.00390625 C3.44935547 -0.00003906 4.33816406 0.00382813 5.25390625 0.0078125 C6.13884766 0.00394531 7.02378906 0.00007812 7.93554688 -0.00390625 C8.78181641 -0.00261719 9.62808594 -0.00132812 10.5 0 C11.27915771 0.00112793 12.05831543 0.00225586 12.86108398 0.00341797 C14.81640625 0.1328125 14.81640625 0.1328125 16.81640625 1.1328125 C15.30320334 15.3489556 12.21366952 28.25388934 5.81640625 41.1328125 C5.18715202 42.42821644 4.55827142 43.72380191 3.9296875 45.01953125 C-4.48358329 62.23088781 -4.48358329 62.23088781 -8.18359375 67.1328125 C-8.84359375 67.1328125 -9.50359375 67.1328125 -10.18359375 67.1328125 C-10.45171875 67.8753125 -10.71984375 68.6178125 -10.99609375 69.3828125 C-12.13636126 72.02343199 -13.27739681 73.98834094 -15.18359375 76.1328125 C-15.84359375 76.1328125 -16.50359375 76.1328125 -17.18359375 76.1328125 C-17.18359375 76.7928125 -17.18359375 77.4528125 -17.18359375 78.1328125 C-17.84359375 78.1328125 -18.50359375 78.1328125 -19.18359375 78.1328125 C-19.45945312 78.72449219 -19.7353125 79.31617188 -20.01953125 79.92578125 C-23.52126958 86.56498311 -29.52591025 91.37855151 -35.18359375 96.1328125 C-35.75722656 96.64457031 -36.33085937 97.15632813 -36.921875 97.68359375 C-40.83746699 101.1328125 -40.83746699 101.1328125 -44.18359375 101.1328125 C-45.44213867 99.8034668 -45.44213867 99.8034668 -46.6640625 97.95703125 C-47.10556641 97.29380859 -47.54707031 96.63058594 -48.00195312 95.94726562 C-48.45376953 95.24537109 -48.90558594 94.54347656 -49.37109375 93.8203125 C-50.0662207 92.78487305 -50.0662207 92.78487305 -50.77539062 91.72851562 C-54.18359375 86.5333901 -54.18359375 86.5333901 -54.18359375 83.1328125 C-51.8828125 81.01171875 -51.8828125 81.01171875 -48.87109375 78.6953125 C-45.41880312 76.02824876 -42.76759302 73.6231992 -40.18359375 70.1328125 C-39.52359375 70.1328125 -38.86359375 70.1328125 -38.18359375 70.1328125 C-37.90644531 69.53210938 -37.62929688 68.93140625 -37.34375 68.3125 C-36.18359375 66.1328125 -36.18359375 66.1328125 -33.62109375 63.2578125 C-19.0126453 46.51674384 -10.26102399 25.04936867 -5.76171875 3.546875 C-4.82728635 -0.35501166 -3.75097162 0.00543788 0 0 Z " fill="#C49242" transform="translate(385.18359375,244.8671875)"/>
<path d="M0 0 C4.25443187 3.09604696 6.20071002 6.99006104 7.140625 12.0234375 C7.61758947 17.90599934 6.68938908 21.94501441 2.890625 26.5234375 C-1.2951742 30.72618326 -4.40726359 32.07046253 -10.296875 32.3359375 C-16.17469742 32.17022775 -19.52564068 30.41779611 -23.609375 26.1484375 C-27.30468601 21.0160611 -28.41824447 17.39454944 -27.859375 11.0234375 C-26.46331271 7.72365391 -24.84563966 5.0028345 -22.859375 2.0234375 C-22.199375 2.0234375 -21.539375 2.0234375 -20.859375 2.0234375 C-20.859375 1.3634375 -20.859375 0.7034375 -20.859375 0.0234375 C-13.54774305 -3.26149859 -7.27549141 -3.82116146 0 0 Z " fill="#D09F4C" transform="translate(232.859375,232.9765625)"/>
<path d="M0 0 C0.99 0.33 1.98 0.66 3 1 C2.67 1.66 2.34 2.32 2 3 C2.66 3 3.32 3 4 3 C4.125 9.75 4.125 9.75 3 12 C3.66 12.33 4.32 12.66 5 13 C5.66 13.66 6.32 14.32 7 15 C9.57061311 15.64767793 9.57061311 15.64767793 12 16 C12 14.02 12 12.04 12 10 C12.33 10 12.66 10 13 10 C14.56612901 27.36663059 4.51022844 42.10801766 -6.08203125 55.015625 C-6.71496094 55.67046875 -7.34789062 56.3253125 -8 57 C-8.66 57 -9.32 57 -10 57 C-10 57.66 -10 58.32 -10 59 C-10.66 59 -11.32 59 -12 59 C-12 59.66 -12 60.32 -12 61 C-13.32 61.66 -14.64 62.32 -16 63 C-17.32074115 61.42353449 -18.63131224 59.83854469 -19.9375 58.25 C-20.66839844 57.36828125 -21.39929688 56.4865625 -22.15234375 55.578125 C-25.0497115 51.53528628 -25.0497115 51.53528628 -25 49 C-23.12109375 46.5546875 -23.12109375 46.5546875 -20.4375 43.875 C-9.50812582 32.47523805 -4.48239055 19.03494548 -1.578125 3.703125 C-1 1 -1 1 0 0 Z " fill="#C49242" transform="translate(339,240)"/>
<path d="M0 0 C6.26886611 2.28085977 9.10617657 9.36760117 12 15 C17.77985537 27.52301998 18.2348945 43.13354508 13.8125 56.1875 C11.69147147 61.73853467 9.19363708 66.98531029 6 72 C2.2305333 71.21436378 0.39759206 70.10798971 -2 67 C-1.91469902 64.35566965 -0.96994742 62.95153609 0.421875 60.70703125 C7.68528546 48.24776529 8.16696469 31.5403384 5.19921875 17.65234375 C4.28381221 14.34769079 3.25350376 11.18991995 2 8 C1.69191406 7.20851562 1.38382812 6.41703125 1.06640625 5.6015625 C0.42450894 4.04749533 -0.27710316 2.51808336 -1 1 C-0.67 0.67 -0.34 0.34 0 0 Z " fill="#CB9D4B" transform="translate(308,197)"/>
<path d="M0 0 C0 7.92 0 15.84 0 24 C-23.64586847 36.03035413 -23.64586847 36.03035413 -36 40 C-36 39.34 -36 38.68 -36 38 C-34.37750059 37.16180842 -32.75191503 36.3295884 -31.125 35.5 C-30.22007812 35.0359375 -29.31515625 34.571875 -28.3828125 34.09375 C-26 33 -26 33 -24 33 C-24 32.34 -24 31.68 -24 31 C-23.21625 30.71125 -22.4325 30.4225 -21.625 30.125 C-18.90328368 29.15087746 -18.90328368 29.15087746 -17 27 C-15.34385343 26.61781233 -13.67542976 26.28604898 -12 26 C-8.8891846 25.34608221 -8.8891846 25.34608221 -7.9375 23 C-7.628125 22.34 -7.31875 21.68 -7 21 C-6.34 20.67 -5.68 20.34 -5 20 C-4.59802999 17.67750658 -4.27313343 15.34114367 -4 13 C-3.49147374 10.20310555 -2.90074289 7.70222868 -2 5 C-4.83602371 5.39389218 -6.64759392 5.72716949 -8.9375 7.5 C-11 9 -11 9 -13.75 9.4375 C-17.33918937 10.05870585 -19.84322687 11.32574498 -23.03125 13.01171875 C-25.60193836 14.3021635 -28.24922959 15.17476888 -31 16 C-31 16.66 -31 17.32 -31 18 C-31.66386719 18.18175781 -32.32773438 18.36351563 -33.01171875 18.55078125 C-38.55224555 20.10048883 -38.55224555 20.10048883 -43.6875 22.625 C-46 24 -46 24 -49.5 24.4375 C-53.49061538 25.0788489 -55.06301661 26.31475804 -58 29 C-60.70879335 30.35439668 -63.00933268 30.06501451 -66 30 C-63.87283769 27.64809962 -62.05395062 26.40218708 -59.11328125 25.23828125 C-58.34838379 24.92834229 -57.58348633 24.61840332 -56.79541016 24.29907227 C-55.9760498 23.97350342 -55.15668945 23.64793457 -54.3125 23.3125 C-48.11863186 20.78428309 -42.06734801 18.13634043 -36.125 15.0625 C-27.33696607 10.53101089 -18.24960993 6.72988205 -9.12792969 2.92626953 C-6.97901171 2.02489083 -6.97901171 2.02489083 -4.91113281 0.88232422 C-3 0 -3 0 0 0 Z " fill="#F4DDA5" transform="translate(256,77)"/>
<path d="M0 0 C0 0.66 0 1.32 0 2 C-0.763125 2.28875 -1.52625 2.5775 -2.3125 2.875 C-5.15029308 3.96269013 -5.15029308 3.96269013 -8 6 C-8.99 6.66 -9.98 7.32 -11 8 C-11.165 8.680625 -11.33 9.36125 -11.5 10.0625 C-11.7475 11.0215625 -11.7475 11.0215625 -12 12 C-12.99 12.33 -13.98 12.66 -15 13 C-16.2125481 15.4250962 -16.0996337 16.90170955 -16.0625 19.609375 C-16.05412109 20.57431885 -16.04574219 21.5392627 -16.03710938 22.53344727 C-16.02486328 23.59490967 -16.01261719 24.65637207 -16 25.75 C-15.94134768 35.03772794 -16.1193267 44.28310448 -16.5 53.5625 C-17.04060718 67.49961685 -17.11351809 81.42852803 -17.125 95.375 C-17.12749756 96.43800323 -17.12999512 97.50100647 -17.13256836 98.59622192 C-17.13848453 101.65532659 -17.13695984 104.7143316 -17.1328125 107.7734375 C-17.13479645 108.68688431 -17.1367804 109.60033112 -17.13882446 110.54145813 C-17.64547579 119.33153568 -17.64547579 119.33153568 -15 127 C-14.68076508 129.0572917 -14.48838648 131.11613521 -14.28125 133.1875 C-14.18001957 135.0167533 -14.18001957 135.0167533 -13 136 C-12.85884839 138.67058851 -12.95752893 141.32432238 -13 144 C-21.08021289 129.81264946 -19.52925498 111.17541077 -19.390625 95.5234375 C-19.38314704 93.0156805 -19.37746148 90.50791757 -19.37347412 88.00015259 C-19.35834024 81.46044234 -19.3191662 74.92109824 -19.2746582 68.38153076 C-19.23121511 61.68411383 -19.21540657 54.98658133 -19.1953125 48.2890625 C-19.15265831 35.19255385 -19.08534827 22.09629657 -19 9 C-14.93102132 6.66599152 -10.87800489 4.36154523 -6.6875 2.25 C-5.84574219 1.82203125 -5.00398437 1.3940625 -4.13671875 0.953125 C-2 0 -2 0 0 0 Z " fill="#DFC28C" transform="translate(142,130)"/>
<path d="M0 0 C6.26886611 2.28085977 9.10617657 9.36760117 12 15 C17.39722672 26.69399122 18.18169839 41.86610542 14.5 54.25 C14.03014741 55.51164121 13.54437441 56.76867693 13 58 C12.06576355 54.98968256 11.95550089 54.13349732 13 51 C13.26149043 46.75434636 13.23146912 42.50283656 13.25 38.25 C13.2809375 36.49816406 13.2809375 36.49816406 13.3125 34.7109375 C13.34131655 28.35688873 13.10969032 23.59744258 10 18 C8.74882705 19.02229844 8.74882705 19.02229844 8.9375 21.1875 C8.958125 22.115625 8.97875 23.04375 9 24 C9.05328888 29.09574902 8.66225068 33.95033854 8 39 C7.67 39 7.34 39 7 39 C6.96132813 37.40285156 6.96132813 37.40285156 6.921875 35.7734375 C6.48877653 23.39141048 4.3805573 12.29917033 -1 1 C-0.67 0.67 -0.34 0.34 0 0 Z " fill="#D8BA7A" transform="translate(308,197)"/>
<path d="M0 0 C0.33 0 0.66 0 1 0 C1 5.94 1 11.88 1 18 C-1.660625 19.175625 -4.32125 20.35125 -7.0625 21.5625 C-13.88971569 24.58325339 -20.67607127 27.67686327 -27.40258789 30.91625977 C-31.78545937 33 -31.78545937 33 -34 33 C-34 32.34 -34 31.68 -34 31 C-32.37750059 30.16180842 -30.75191503 29.3295884 -29.125 28.5 C-28.22007812 28.0359375 -27.31515625 27.571875 -26.3828125 27.09375 C-24 26 -24 26 -22 26 C-22 25.34 -22 24.68 -22 24 C-21.21625 23.71125 -20.4325 23.4225 -19.625 23.125 C-16.90328368 22.15087746 -16.90328368 22.15087746 -15 20 C-13.34385343 19.61781233 -11.67542976 19.28604898 -10 19 C-6.8891846 18.34608221 -6.8891846 18.34608221 -5.9375 16 C-5.628125 15.34 -5.31875 14.68 -5 14 C-4.34 13.67 -3.68 13.34 -3 13 C-2.59802999 10.67750658 -2.27313343 8.34114367 -2 6 C-1.15789474 1.15789474 -1.15789474 1.15789474 0 0 Z " fill="#E8C97F" transform="translate(254,84)"/>
<path d="M0 0 C13.04393989 0 25.99785745 3.88604361 38 9 C38.66 9.66 39.32 10.32 40 11 C22.57142857 9.57142857 22.57142857 9.57142857 18 5 C15.56747339 4.53837573 15.56747339 4.53837573 12.875 4.375 C11.96492188 4.30023438 11.05484375 4.22546875 10.1171875 4.1484375 C9.41851562 4.09945312 8.71984375 4.05046875 8 4 C7.67 3.01 7.34 2.02 7 1 C5.35 1 3.7 1 2 1 C2 7.27 2 13.54 2 20 C4.31 20 6.62 20 9 20 C9.33 20.99 9.66 21.98 10 23 C6.7 22.34 3.4 21.68 0 21 C0 14.07 0 7.14 0 0 Z " fill="#E9CD93" transform="translate(274,91)"/>
<path d="M0 0 C0.33 0 0.66 0 1 0 C1.57042254 10.88028169 1.57042254 10.88028169 -2 15 C-2.66 15 -3.32 15 -4 15 C-4 15.99 -4 16.98 -4 18 C-2.02 18.33 -0.04 18.66 2 19 C2 18.34 2 17.68 2 17 C1.34 16.67 0.68 16.34 0 16 C1.47692308 11.32307692 1.47692308 11.32307692 4.125 9.6875 C4.74375 9.460625 5.3625 9.23375 6 9 C6.95971191 16.19783936 3.66199881 20.97296029 0 27 C-3.7694667 26.21436378 -5.60240794 25.10798971 -8 22 C-7.91505218 19.36661747 -7.00275317 18.0042659 -5.578125 15.796875 C-3.80691582 12.65780131 -2.8247382 9.64307179 -1.8125 6.1875 C-1.46832031 5.02605469 -1.12414062 3.86460937 -0.76953125 2.66796875 C-0.51558594 1.78753906 -0.26164062 0.90710938 0 0 Z " fill="#CCA45E" transform="translate(314,242)"/>
<path d="M0 0 C-0.91064209 0.4125 -1.82128418 0.825 -2.75952148 1.25 C-6.98621134 3.16513109 -11.21191672 5.08242884 -15.4375 7 C-16.19209503 7.34225616 -16.94669006 7.68451233 -17.72415161 8.03713989 C-27.00590174 12.24846636 -36.28325698 16.46394385 -45.45288086 20.91601562 C-49.79156148 23 -49.79156148 23 -52 23 C-52 21 -52 21 -50 19 C-46.875 18.875 -46.875 18.875 -44 19 C-44 18.34 -44 17.68 -44 17 C-43.01 17 -42.02 17 -41 17 C-40.67 16.01 -40.34 15.02 -40 14 C-37.25 12.9375 -37.25 12.9375 -34 12 C-32.6696875 11.443125 -32.6696875 11.443125 -31.3125 10.875 C-29 10 -29 10 -26 10 C-26.33 9.01 -26.66 8.02 -27 7 C-26.34 7 -25.68 7 -25 7 C-24.67 6.34 -24.34 5.68 -24 5 C-22.948125 5.0928125 -22.948125 5.0928125 -21.875 5.1875 C-18.87165823 5.17836474 -18.87165823 5.17836474 -16 3.5 C-12.95998055 1.97999028 -11.3288153 1.706281 -8 2 C-8 1.34 -8 0.68 -8 0 C-4.90645403 -0.99435406 -3.09720845 -0.87840996 0 0 Z " fill="#E0BE84" transform="translate(220,118)"/>
<path d="M0 0 C0 0.66 0 1.32 0 2 C-0.763125 2.28875 -1.52625 2.5775 -2.3125 2.875 C-5.15029308 3.96269013 -5.15029308 3.96269013 -8 6 C-8.99 6.66 -9.98 7.32 -11 8 C-11.165 8.680625 -11.33 9.36125 -11.5 10.0625 C-11.7475 11.0215625 -11.7475 11.0215625 -12 12 C-12.99 12.33 -13.98 12.66 -15 13 C-16.2125481 15.4250962 -16.0996337 16.90170955 -16.0625 19.609375 C-16.05412109 20.57818604 -16.04574219 21.54699707 -16.03710938 22.54516602 C-16.02486328 23.60276123 -16.01261719 24.66035645 -16 25.75 C-15.9329794 36.03385464 -16.13215761 46.28698327 -16.5 56.5625 C-16.52400879 57.23591431 -16.54801758 57.90932861 -16.57275391 58.60314941 C-16.70940995 62.40232696 -16.85206302 66.20124595 -17 70 C-17.33 70 -17.66 70 -18 70 C-18 49.54 -18 29.08 -18 8 C-2 0 -2 0 0 0 Z " fill="#E7C074" transform="translate(142,130)"/>
<path d="M0 0 C5.31027254 1.46032495 9.46330032 3.98320986 14 7 C10.59068103 8.13643966 9.99664544 7.86747764 6.8125 6.5625 C6.09707031 6.27503906 5.38164062 5.98757812 4.64453125 5.69140625 C4.10183594 5.46324219 3.55914062 5.23507813 3 5 C2.67 7.31 2.34 9.62 2 12 C1.34 11.67 0.68 11.34 0 11 C-0.33 13.31 -0.66 15.62 -1 18 C-2.98 17.34 -4.96 16.68 -7 16 C-5.26017005 10.18738629 -3.1889511 5.16830006 0 0 Z " fill="#E0B55D" transform="translate(302,150)"/>
<path d="M0 0 C0.66 0.33 1.32 0.66 2 1 C-4.75 5 -4.75 5 -7 5 C-7 5.66 -7 6.32 -7 7 C-7.66386719 7.18175781 -8.32773438 7.36351563 -9.01171875 7.55078125 C-14.55224555 9.10048883 -14.55224555 9.10048883 -19.6875 11.625 C-22 13 -22 13 -25.5 13.4375 C-29.49061538 14.0788489 -31.06301661 15.31475804 -34 18 C-36.70879335 19.35439668 -39.00933268 19.06501451 -42 19 C-39.82249115 16.5784563 -37.91534318 15.34207703 -34.90234375 14.1328125 C-34.10546143 13.80684082 -33.3085791 13.48086914 -32.48754883 13.14501953 C-31.22527466 12.64010986 -31.22527466 12.64010986 -29.9375 12.125 C-24.62953062 9.95720161 -19.39087989 7.79950728 -14.3125 5.125 C-10.26974176 3.01511917 -6.45313244 1.95424267 -2 1 C-1.34 0.67 -0.68 0.34 0 0 Z " fill="#EBCD8A" transform="translate(232,88)"/>
<path d="M0 0 C0 1.65 0 3.3 0 5 C1.11375 4.505 2.2275 4.01 3.375 3.5 C7 2 7 2 9 2 C9.33 1.34 9.66 0.68 10 0 C10.66 0.66 11.32 1.32 12 2 C8.64608325 5.72657416 5.95214547 7.68838464 0.890625 8.22265625 C-4.15949686 8.4175435 -7.6521173 7.82612376 -12 5 C-12.33 4.34 -12.66 3.68 -13 3 C-9.41118287 1.3052808 -7.7686692 0.99502155 -4 2 C-1 0 -1 0 0 0 Z " fill="#CFA45C" transform="translate(224,257)"/>
<path d="M0 0 C7.12759867 11.97915742 4.6996025 32.06857073 2 45 C0.9296875 47.40625 0.9296875 47.40625 0 49 C-0.10438723 42.66717496 0.0055804 36.43675549 0.5625 30.125 C1.04491013 24.0613727 0.78997243 18.27426979 0.2578125 12.22265625 C-0.06966979 8.12912763 -0.0707574 4.10392947 0 0 Z " fill="#CDAC6D" transform="translate(352,209)"/>
<path d="M0 0 C4.22244869 3.07277207 6.25732455 7.00074869 7.140625 12.0234375 C7.17015158 15.42883592 6.99736453 18.71887073 6.140625 22.0234375 C5.480625 22.3534375 4.820625 22.6834375 4.140625 23.0234375 C4.140625 18.4034375 4.140625 13.7834375 4.140625 9.0234375 C3.150625 8.6934375 2.160625 8.3634375 1.140625 8.0234375 C-0.50757695 5.42101336 -0.859375 4.16094971 -0.859375 1.0234375 C-6.469375 0.6934375 -12.079375 0.3634375 -17.859375 0.0234375 C-17.859375 0.6834375 -17.859375 1.3434375 -17.859375 2.0234375 C-18.849375 2.0234375 -19.839375 2.0234375 -20.859375 2.0234375 C-20.859375 1.3634375 -20.859375 0.7034375 -20.859375 0.0234375 C-13.54774305 -3.26149859 -7.27549141 -3.82116146 0 0 Z " fill="#D8B97B" transform="translate(232.859375,232.9765625)"/>
<path d="M0 0 C2.97 0.33 5.94 0.66 9 1 C9 1.66 9 2.32 9 3 C10.134375 3.103125 11.26875 3.20625 12.4375 3.3125 C17.2015848 3.89741433 21.50598036 5.36903429 26 7 C26.99 7.33 27.98 7.66 29 8 C31.6875 9.4375 31.6875 9.4375 34 11 C34 11.66 34 12.32 34 13 C35.32 13.33 36.64 13.66 38 14 C38 14.99 38 15.98 38 17 C34.0355422 15.83967089 30.71234369 14.29770509 27.1640625 12.203125 C18.52529579 7.40034495 9.43103941 3.88878685 0 1 C0 0.67 0 0.34 0 0 Z " fill="#E8D29F" transform="translate(287,114)"/>
<path d="M0 0 C0.33 0.66 0.66 1.32 1 2 C1.66 2 2.32 2 3 2 C2.67 4.31 2.34 6.62 2 9 C0.7934375 9.3403125 0.7934375 9.3403125 -0.4375 9.6875 C-3.22204855 10.74514268 -3.22204855 10.74514268 -3.875 13.4375 C-4.16089524 16.12077174 -4.16089524 16.12077174 -3 19 C-4.98 18.67 -6.96 18.34 -9 18 C-9 17.01 -9 16.02 -9 15 C-8.34 14.67 -7.68 14.34 -7 14 C-5.28720244 11.38042726 -4.9585892 9.60659736 -4.625 6.4375 C-4 3 -4 3 -1.9375 1.0625 C-0.9784375 0.5365625 -0.9784375 0.5365625 0 0 Z " fill="#C6943F" transform="translate(319,242)"/>
<path d="M0 0 C4.16204606 2.55398281 7.22931926 4.95054353 10 9 C10 9.66 10 10.32 10 11 C10.66 11 11.32 11 12 11 C13.5078125 12.96875 13.5078125 12.96875 15.125 15.5 C15.93324219 16.75296875 15.93324219 16.75296875 16.7578125 18.03125 C17.16773438 18.6809375 17.57765625 19.330625 18 20 C15.69 19.67 13.38 19.34 11 19 C11 17.68 11 16.36 11 15 C10.34 14.67 9.68 14.34 9 14 C9 13.34 9 12.68 9 12 C7.02 12 5.04 12 3 12 C2.814375 10.6078125 2.814375 10.6078125 2.625 9.1875 C2.18466918 5.86074765 2.18466918 5.86074765 0 3 C0 2.01 0 1.02 0 0 Z " fill="#E4CA8A" transform="translate(358,130)"/>
<path d="M0 0 C1.31146877 2.62293754 0.78799893 3.54721661 -0.0625 6.3125 C-1.68602311 11.00350917 -4.11149826 12.92160279 -8 16 C-9.3046491 18.29521601 -10.1161427 20.49573764 -11 23 C-11.66 23 -12.32 23 -13 23 C-13.7115625 24.2375 -13.7115625 24.2375 -14.4375 25.5 C-15.2109375 26.7375 -15.2109375 26.7375 -16 28 C-16.99 28 -17.98 28 -19 28 C-17.70304229 25.18891956 -16.55464838 23.5003372 -14.4375 21.125 C-9.56717004 15.61731822 -5.89894749 9.2071244 -2 3 C-1.34 2.01 -0.68 1.02 0 0 Z " fill="#D1B378" transform="translate(366,287)"/>
<path d="M0 0 C3.34373475 0.55728913 6.03312999 1.35173889 9 3 C9 3.66 9 4.32 9 5 C9.5775 5.268125 10.155 5.53625 10.75 5.8125 C13.05550043 7.02929189 15.02056192 8.30333879 17 10 C17 10.66 17 11.32 17 12 C17.66 12 18.32 12 19 12 C20.0625 13.8125 20.0625 13.8125 21 16 C20.67 16.99 20.34 17.98 20 19 C19.64550781 18.53851563 19.29101562 18.07703125 18.92578125 17.6015625 C14.59508442 12.29567244 9.74641512 8.28118623 4.26879883 4.23876953 C2.8323023 3.17729409 1.41422427 2.09097301 0 1 C0 0.67 0 0.34 0 0 Z " fill="#E1BF7F" transform="translate(301,168)"/>
<path d="M0 0 C0.99 0 1.98 0 3 0 C3 0.99 3 1.98 3 3 C3.66 3 4.32 3 5 3 C5.33 3.99 5.66 4.98 6 6 C6.99 6.66 7.98 7.32 9 8 C9 8.66 9 9.32 9 10 C6.69 10.66 4.38 11.32 2 12 C2 12.99 2 13.98 2 15 C0.68 14.67 -0.64 14.34 -2 14 C-1.34 14 -0.68 14 0 14 C-0.33 13.01 -0.66 12.02 -1 11 C-0.67 10.01 -0.34 9.02 0 8 C0.99 8 1.98 8 3 8 C3 7.01 3 6.02 3 5 C2.34 5 1.68 5 1 5 C0.67 3.35 0.34 1.7 0 0 Z " fill="#C59441" transform="translate(281,369)"/>
<path d="M0 0 C1.32256051 3.96768152 0.29090379 5.47352418 -1.25 9.3125 C-1.68828125 10.42238281 -2.1265625 11.53226562 -2.578125 12.67578125 C-3.93719402 15.85316513 -5.41963344 18.92758148 -7 22 C-7.33 22 -7.66 22 -8 22 C-8 20.02 -8 18.04 -8 16 C-7.01 15.67 -6.02 15.34 -5 15 C-4.85024761 7.94348748 -4.85024761 7.94348748 -6 1 C-3.03 1.495 -3.03 1.495 0 2 C0 1.34 0 0.68 0 0 Z " fill="#CDA560" transform="translate(351,258)"/>
<path d="M0 0 C4.65721361 0.59891231 8.38056059 2.58381245 12.4375 4.8125 C13.08009766 5.15603516 13.72269531 5.49957031 14.38476562 5.85351562 C18.41393332 8.03376576 22.22560098 10.40400685 26 13 C24.375 13.75 24.375 13.75 22 14 C19.97209016 12.70951192 17.97630407 11.36821051 16 10 C13.36664189 8.85919504 10.71654701 7.93674035 8 7 C8 6.34 8 5.68 8 5 C7.34 5 6.68 5 6 5 C6 4.34 6 3.68 6 3 C3.03 2.505 3.03 2.505 0 2 C0 1.34 0 0.68 0 0 Z " fill="#EED69A" transform="translate(314,102)"/>
<path d="M0 0 C0.33 0 0.66 0 1 0 C1.29797895 8.19442106 -0.23065875 15.28540651 -3 23 C-3.66 23 -4.32 23 -5 23 C-5 23.99 -5 24.98 -5 26 C-5.99 26.33 -6.98 26.66 -8 27 C-6.11063988 20.53037293 -4.06229533 14.134338 -1.8671875 7.76171875 C-1.05753563 5.18323283 -0.47451764 2.65826717 0 0 Z " fill="#D3B47C" transform="translate(378,254)"/>
<path d="M0 0 C2.64 0.33 5.28 0.66 8 1 C8 1.66 8 2.32 8 3 C8.66 3.33 9.32 3.66 10 4 C10 4.66 10 5.32 10 6 C10.99 6 11.98 6 13 6 C13.33 7.32 13.66 8.64 14 10 C15.32 10.33 16.64 10.66 18 11 C17.67 12.32 17.34 13.64 17 15 C15.2925002 13.71937515 13.62626404 12.38232443 12 11 C12 10.34 12 9.68 12 9 C11.42765625 8.73316406 10.8553125 8.46632812 10.265625 8.19140625 C7.90688039 6.95103193 5.876888 5.54054336 3.75 3.9375 C3.04359375 3.41027344 2.3371875 2.88304687 1.609375 2.33984375 C1.07828125 1.89769531 0.5471875 1.45554688 0 1 C0 0.67 0 0.34 0 0 Z " fill="#EACC8F" transform="translate(328,133)"/>
<path d="M0 0 C4.75413223 2.43801653 4.75413223 2.43801653 5.875 5 C6 7 6 7 5 10 C4.93029948 12.39490986 4.91551997 14.79167691 4.9375 17.1875 C4.94652344 18.45980469 4.95554687 19.73210937 4.96484375 21.04296875 C4.97644531 22.01878906 4.98804688 22.99460938 5 24 C5.99 24.33 6.98 24.66 8 25 C6.35 24.67 4.7 24.34 3 24 C2 16 1 8 0 0 Z " fill="#D6B57B" transform="translate(377,201)"/>
<path d="M0 0 C-2.60893258 1.18587845 -5.21803534 2.37135669 -7.828125 3.5546875 C-9.92547165 4.51037501 -12.01931135 5.4738005 -14.109375 6.4453125 C-15.57117188 7.12207031 -15.57117188 7.12207031 -17.0625 7.8125 C-17.96097656 8.23144531 -18.85945312 8.65039062 -19.78515625 9.08203125 C-22 10 -22 10 -24 10 C-24 9.34 -24 8.68 -24 8 C-22.37750059 7.16180842 -20.75191503 6.3295884 -19.125 5.5 C-17.76761719 4.80390625 -17.76761719 4.80390625 -16.3828125 4.09375 C-14 3 -14 3 -12 3 C-12 2.34 -12 1.68 -12 1 C-10.56496445 0.63597631 -9.12683494 0.28413409 -7.6875 -0.0625 C-6.88699219 -0.25972656 -6.08648437 -0.45695312 -5.26171875 -0.66015625 C-3 -1 -3 -1 0 0 Z " fill="#EBD294" transform="translate(244,107)"/>
<path d="M0 0 C2.07476964 3.11215447 2.71064913 5.32939866 3.5625 8.9375 C3.81128906 9.97777344 4.06007813 11.01804688 4.31640625 12.08984375 C4.54199219 13.05019531 4.76757812 14.01054687 5 15 C5.20367187 15.69738281 5.40734375 16.39476562 5.6171875 17.11328125 C6.29907224 20.4739989 5.50467084 23.63552773 5 27 C4.34 27 3.68 27 3 27 C2 18 1 9 0 0 Z " fill="#D7B67D" transform="translate(336,213)"/>
<path d="M0 0 C3.1414436 1.83250877 6.22602027 3.63698023 9 6 C9 6.66 9 7.32 9 8 C9.598125 8.268125 10.19625 8.53625 10.8125 8.8125 C12.99847854 9.99917406 14.41332594 11.09599113 16 13 C16 13.66 16 14.32 16 15 C16.66 15 17.32 15 18 15 C18 15.66 18 16.32 18 17 C16.35 16.34 14.7 15.68 13 15 C13 14.34 13 13.68 13 13 C12.34 13 11.68 13 11 13 C10.34 12.01 9.68 11.02 9 10 C8.175 9.54625 7.35 9.0925 6.5 8.625 C3.55505695 6.71078701 2.98275834 5.30564167 2 2 C1.34 2 0.68 2 0 2 C0 1.34 0 0.68 0 0 Z " fill="#E7CC94" transform="translate(316,158)"/>
<path d="M0 0 C2.05555155 1.67489386 2.34268813 2.78891095 2.6875 5.375 C1.615 5.189375 0.5425 5.00375 -0.5625 4.8125 C-3.90041715 4.42307633 -5.28121837 4.33299694 -8.3125 5.375 C-9.55 5.725625 -10.7875 6.07625 -12.0625 6.4375 C-13.67125 6.9015625 -13.67125 6.9015625 -15.3125 7.375 C-15.6425 6.715 -15.9725 6.055 -16.3125 5.375 C-15.549375 5.271875 -14.78625 5.16875 -14 5.0625 C-11.31117239 4.6179527 -11.31117239 4.6179527 -9.875 2.9375 C-7.09269625 0.15519625 -3.82373192 -1.03344106 0 0 Z " fill="#CC9F5B" transform="translate(269.3125,370.625)"/>
<path d="M0 0 C1.32 0 2.64 0 4 0 C4.103125 0.598125 4.20625 1.19625 4.3125 1.8125 C5.08876455 4.28243264 6.07088921 5.32251235 8 7 C6 9 6 9 2.875 9.125 C1.451875 9.063125 1.451875 9.063125 0 9 C-0.84454356 5.62182575 -1.10844919 3.32534757 0 0 Z " fill="#C39241" transform="translate(193,335)"/>
<path d="M0 0 C4.20763224 1.5027258 5.8027758 4.23332995 8 8 C8 8.66 8 9.32 8 10 C7.34 10 6.68 10 6 10 C6 10.66 6 11.32 6 12 C6 14.33333333 6 16.66666667 6 19 C5.67 19 5.34 19 5 19 C4.81824219 18.28714844 4.63648438 17.57429688 4.44921875 16.83984375 C3.00217222 11.32622542 1.41108634 6.16661358 -1 1 C-0.67 0.67 -0.34 0.34 0 0 Z " fill="#E5C999" transform="translate(308,197)"/>
<path d="M0 0 C3.06647799 6.13295597 -1.24454911 16.03383257 -2.96484375 22.15625 C-4 25 -4 25 -6 26 C-5.85950482 24.52031676 -5.71245174 23.04125484 -5.5625 21.5625 C-5.48128906 20.73878906 -5.40007812 19.91507812 -5.31640625 19.06640625 C-5 17 -5 17 -4 16 C-3.92755947 13.98035801 -3.91622812 11.95832876 -3.9375 9.9375 C-3.95103516 8.28041016 -3.95103516 8.28041016 -3.96484375 6.58984375 C-3.97644531 5.73519531 -3.98804688 4.88054687 -4 4 C-3.34 4.33 -2.68 4.66 -2 5 C-1.34 3.35 -0.68 1.7 0 0 Z " fill="#D1AE6F" transform="translate(400,250)"/>
<path d="M0 0 C5.31027254 1.46032495 9.46330032 3.98320986 14 7 C10.36804504 8.21065165 8.93468371 7.62784815 5.3125 6.5625 C4.31863281 6.27503906 3.32476562 5.98757812 2.30078125 5.69140625 C1.54152344 5.46324219 0.78226562 5.23507813 0 5 C-0.33 5.66 -0.66 6.32 -1 7 C-1.66 7 -2.32 7 -3 7 C-1.125 1.125 -1.125 1.125 0 0 Z " fill="#E7C883" transform="translate(302,150)"/>
<path d="M0 0 C0.99 0 1.98 0 3 0 C3.061875 0.61875 3.12375 1.2375 3.1875 1.875 C3.455625 2.57625 3.72375 3.2775 4 4 C5.64551962 4.71727778 7.31422289 5.38325228 9 6 C11.15546298 9.23319447 11.68074747 11.16896958 12 15 C11.01 16.485 11.01 16.485 10 18 C9.69707031 17.3709375 9.39414062 16.741875 9.08203125 16.09375 C6.34946332 10.51090353 3.41098098 5.19630294 0 0 Z " fill="#DFBA74" transform="translate(322,187)"/>
<path d="M0 0 C0.33 0 0.66 0 1 0 C1.33 2.64 1.66 5.28 2 8 C-1 9 -1 9 -5 9 C-5.66 10.32 -6.32 11.64 -7 13 C-7.99 12.01 -8.98 11.02 -10 10 C-6.25 7 -6.25 7 -4 7 C-3.71125 6.401875 -3.4225 5.80375 -3.125 5.1875 C-2 3 -2 3 0 0 Z " fill="#7E3446" transform="translate(269,237)"/>
<path d="M0 0 C2 1.375 2 1.375 4 3 C4 3.66 4 4.32 4 5 C4.61875 5.103125 5.2375 5.20625 5.875 5.3125 C8 6 8 6 10 9 C10.125 11.6875 10.125 11.6875 10 14 C5.04741286 10.22660027 1.56320845 6.09210286 -2 1 C-1.34 0.67 -0.68 0.34 0 0 Z " fill="#E2C47E" transform="translate(348,147)"/>
<path d="M0 0 C1.69155793 2.70649269 2.2150566 5.0661133 2.5625 8.1875 C2.57461534 11.78190939 2.57461534 11.78190939 4 13 C4.31923492 15.0572917 4.51161352 17.11613521 4.71875 19.1875 C4.81998043 21.0167533 4.81998043 21.0167533 6 22 C6.14115161 24.67058851 6.04247107 27.32432238 6 30 C3.79657322 25.87448403 2.87630041 21.78922851 1.875 17.25 C1.69324219 16.4765625 1.51148437 15.703125 1.32421875 14.90625 C0.18984618 9.82289623 -0.1783141 5.20677179 0 0 Z " fill="#E3CA91" transform="translate(123,244)"/>
<path d="M0 0 C2.625 2.125 2.625 2.125 4 4 C3.00419922 3.52433594 3.00419922 3.52433594 1.98828125 3.0390625 C-1.60924343 1.78815849 -5.0439801 1.54809948 -8.8125 1.375 C-9.50537109 1.33632812 -10.19824219 1.29765625 -10.91210938 1.2578125 C-12.60767015 1.16426432 -14.30379712 1.08107636 -16 1 C-16 1.66 -16 2.32 -16 3 C-16.99 3 -17.98 3 -19 3 C-19 2.34 -19 1.68 -19 1 C-12.29551593 -2.01215951 -6.98045255 -2.61923624 0 0 Z " fill="#E0C68D" transform="translate(231,232)"/>
<path d="M0 0 C6.13532814 3.87718653 11.66105169 8.08293044 17 13 C14 14 14 14 10.4375 12.3125 C7.47789736 10.52067377 6.42647563 9.15862461 5 6 C4.13375 5.484375 3.2675 4.96875 2.375 4.4375 C1.59125 3.963125 0.8075 3.48875 0 3 C0 2.01 0 1.02 0 0 Z " fill="#EAD094" transform="translate(341,116)"/>
<path d="M0 0 C-2.95564708 1.33934716 -5.9149378 2.67044247 -8.875 4 C-9.71675781 4.3815625 -10.55851563 4.763125 -11.42578125 5.15625 C-12.23144531 5.5171875 -13.03710938 5.878125 -13.8671875 6.25 C-14.61081543 6.58515625 -15.35444336 6.9203125 -16.12060547 7.265625 C-18 8 -18 8 -20 8 C-19.375 6.125 -19.375 6.125 -18 4 C-14.38181456 2.42687589 -11.97906647 2 -8 2 C-8 1.34 -8 0.68 -8 0 C-4.90645403 -0.99435406 -3.09720845 -0.87840996 0 0 Z " fill="#E5CA8E" transform="translate(220,118)"/>
<path d="M0 0 C0.66 0.33 1.32 0.66 2 1 C0.56623011 5.30130966 -2.61615517 6.23625005 -6.4375 8.1875 C-7.13166016 8.55552734 -7.82582031 8.92355469 -8.54101562 9.30273438 C-13.71035772 12 -13.71035772 12 -16 12 C-16 11.34 -16 10.68 -16 10 C-14.35 9.67 -12.7 9.34 -11 9 C-11 8.34 -11 7.68 -11 7 C-9.68 7 -8.36 7 -7 7 C-7 6.01 -7 5.02 -7 4 C-4.69 3.34 -2.38 2.68 0 2 C0 1.34 0 0.68 0 0 Z " fill="#D7B887" transform="translate(290,377)"/>
<path d="M0 0 C-0.66 1.32 -1.32 2.64 -2 4 C-2.66 3.67 -3.32 3.34 -4 3 C-4 3.66 -4 4.32 -4 5 C-4.61875 5.2475 -5.2375 5.495 -5.875 5.75 C-8.35068687 7.20628639 -8.95125002 8.37812506 -10 11 C-10.66 11 -11.32 11 -12 11 C-11.34 8.03 -10.68 5.06 -10 2 C-2.25 0 -2.25 0 0 0 Z " fill="#681B2D" transform="translate(258,248)"/>
<path d="M0 0 C0 0.99 0 1.98 0 3 C0.66 3 1.32 3 2 3 C2 5.31 2 7.62 2 10 C-1.36143418 8.87952194 -2.57528834 7.50292817 -5 5 C-5.66 4.67 -6.32 4.34 -7 4 C-5.53303752 1.06607504 -3.25996861 0 0 0 Z " fill="#C59142" transform="translate(221,368)"/>
<path d="M0 0 C3.28172549 1.53905739 4.47963872 4.04067797 6.390625 7.06640625 C7.09703125 8.17113281 7.8034375 9.27585937 8.53125 10.4140625 C9.06234375 11.26871094 9.5934375 12.12335938 10.140625 13.00390625 C9.810625 13.66390625 9.480625 14.32390625 9.140625 15.00390625 C7.820625 14.01390625 6.500625 13.02390625 5.140625 12.00390625 C5.470625 11.34390625 5.800625 10.68390625 6.140625 10.00390625 C5.480625 10.00390625 4.820625 10.00390625 4.140625 10.00390625 C4.140625 9.01390625 4.140625 8.02390625 4.140625 7.00390625 C2.820625 6.34390625 1.500625 5.68390625 0.140625 5.00390625 C0.470625 4.01390625 0.800625 3.02390625 1.140625 2.00390625 C-0.509375 2.00390625 -2.159375 2.00390625 -3.859375 2.00390625 C-1.859375 0.00390625 -1.859375 0.00390625 0 0 Z " fill="#DABF92" transform="translate(279.859375,361.99609375)"/>
<path d="M0 0 C3.875 2.75 3.875 2.75 5 5 C5.04254356 6.99954746 5.04080783 9.00041636 5 11 C5 11.99 5 12.98 5 14 C3.82750647 12.54634731 2.66216184 11.08692581 1.5 9.625 C0.8503125 8.81289063 0.200625 8.00078125 -0.46875 7.1640625 C-2 5 -2 5 -2 3 C-1.34 3 -0.68 3 0 3 C0 2.01 0 1.02 0 0 Z " fill="#CEA863" transform="translate(149,307)"/>
<path d="M0 0 C0.66 1.32 1.32 2.64 2 4 C2.33 4.33 2.66 4.66 3 5 C3.40807542 11.72124218 2.87346005 18.33986708 2 25 C1.67 25 1.34 25 1 25 C0.67 16.75 0.34 8.5 0 0 Z " fill="#DBBD84" transform="translate(314,211)"/>
<path d="M0 0 C0.33 0 0.66 0 1 0 C1.57042254 10.88028169 1.57042254 10.88028169 -2 15 C-2.66 15 -3.32 15 -4 15 C-4 15.99 -4 16.98 -4 18 C-4.66 18 -5.32 18 -6 18 C-4 12 -2 6 0 0 Z " fill="#D3B179" transform="translate(314,242)"/>
<path d="M0 0 C0.66 0 1.32 0 2 0 C2 0.66 2 1.32 2 2 C3.32 1.67 4.64 1.34 6 1 C6.6875 3.3125 6.6875 3.3125 7 6 C5.5625 7.8125 5.5625 7.8125 4 9 C0.06153846 5.67692308 0.06153846 5.67692308 -0.25 2.25 C-0.1675 1.5075 -0.085 0.765 0 0 Z " fill="#C79A46" transform="translate(377,196)"/>
<path d="M0 0 C4.08889201 2.22222392 5.7411657 3.29408826 7.375 7.75 C7.58125 8.8225 7.7875 9.895 8 11 C6.35 11.33 4.7 11.66 3 12 C2.814375 10.6078125 2.814375 10.6078125 2.625 9.1875 C2.18466918 5.86074765 2.18466918 5.86074765 0 3 C0 2.01 0 1.02 0 0 Z " fill="#E3B765" transform="translate(358,130)"/>
<path d="M0 0 C1.98 0.99 3.96 1.98 6 3 C6 3.66 6 4.32 6 5 C7.32 5.33 8.64 5.66 10 6 C10 6.99 10 7.98 10 9 C5.49197399 7.74194623 2.5087188 6.09592835 -1 3 C-0.67 2.01 -0.34 1.02 0 0 Z " fill="#E6C179" transform="translate(315,122)"/>
<path d="M0 0 C0.33 0 0.66 0 1 0 C1 6.27 1 12.54 1 19 C3.31 19 5.62 19 8 19 C8.33 19.99 8.66 20.98 9 22 C4.545 21.01 4.545 21.01 0 20 C0 13.4 0 6.8 0 0 Z " fill="#DEC180" transform="translate(275,92)"/>
<path d="M0 0 C1.65 0.33 3.3 0.66 5 1 C2.66666667 3.33333333 0.33333333 5.66666667 -2 8 C-2.99 8 -3.98 8 -5 8 C-6.6875 5.5 -6.6875 5.5 -8 3 C-5.69 3.66 -3.38 4.32 -1 5 C-0.67 3.35 -0.34 1.7 0 0 Z " fill="#D1AF70" transform="translate(346,338)"/>
<path d="M0 0 C0.99 0.33 1.98 0.66 3 1 C1.88407791 3.00507927 0.75701288 5.00396096 -0.375 7 C-1.31472656 8.670625 -1.31472656 8.670625 -2.2734375 10.375 C-2.84320313 11.24125 -3.41296875 12.1075 -4 13 C-4.66 13 -5.32 13 -6 13 C-6 11.68 -6 10.36 -6 9 C-5.34 9 -4.68 9 -4 9 C-4 8.01 -4 7.02 -4 6 C-3.34 6 -2.68 6 -2 6 C-1.855625 5.195625 -1.71125 4.39125 -1.5625 3.5625 C-1 1 -1 1 0 0 Z " fill="#CEAC75" transform="translate(381,299)"/>
<path d="M0 0 C3.23751093 6.29077328 3.1216324 12.03992396 3 19 C2.34 19 1.68 19 1 19 C-0.26582219 15.13276369 -0.1118765 11.26848738 -0.0625 7.25 C-0.05798828 6.55261719 -0.05347656 5.85523438 -0.04882812 5.13671875 C-0.0371002 3.42444197 -0.01916653 1.71220967 0 0 Z " fill="#D7B782" transform="translate(352,209)"/>
<path d="M0 0 C0.99 0.33 1.98 0.66 3 1 C3.22786458 3.05078125 3.45572917 5.1015625 3.68359375 7.15234375 C3.81886614 9.01140229 3.81886614 9.01140229 5 10 C5.04080783 11.99958364 5.04254356 14.00045254 5 16 C3.26337666 12.77484237 2.1094072 9.48670834 1 6 C0.34 6.66 -0.32 7.32 -1 8 C-1.04241723 5.66705225 -1.04092937 3.33297433 -1 1 C-0.67 0.67 -0.34 0.34 0 0 Z " fill="#C5994A" transform="translate(394,192)"/>
<path d="M0 0 C0 0.66 0 1.32 0 2 C-0.763125 2.28875 -1.52625 2.5775 -2.3125 2.875 C-5.15029308 3.96269013 -5.15029308 3.96269013 -8 6 C-13.41608842 9.11136994 -13.41608842 9.11136994 -16.19140625 8.58203125 C-17.08666016 8.29392578 -17.08666016 8.29392578 -18 8 C-15.3773768 6.66180502 -12.75213401 5.3292849 -10.125 4 C-9.00544922 3.42765625 -9.00544922 3.42765625 -7.86328125 2.84375 C-7.14785156 2.4828125 -6.43242187 2.121875 -5.6953125 1.75 C-5.03547363 1.41484375 -4.37563477 1.0796875 -3.69580078 0.734375 C-2 0 -2 0 0 0 Z " fill="#EED49D" transform="translate(142,130)"/>
<path d="M0 0 C-0.66 1.32 -1.32 2.64 -2 4 C-2.66 4 -3.32 4 -4 4 C-3.67 5.32 -3.34 6.64 -3 8 C-5.64 8 -8.28 8 -11 8 C-11.33 7.34 -11.66 6.68 -12 6 C-10.02 5.67 -8.04 5.34 -6 5 C-6 4.01 -6 3.02 -6 2 C-2.25 0 -2.25 0 0 0 Z " fill="#E5BE6F" transform="translate(148,127)"/>
<path d="M0 0 C1.65 0 3.3 0 5 0 C4.34 1.65 3.68 3.3 3 5 C2.34 5 1.68 5 1 5 C1 6.98 1 8.96 1 11 C1.66 11.33 2.32 11.66 3 12 C2.34 12 1.68 12 1 12 C1 13.98 1 15.96 1 18 C0.67 18 0.34 18 0 18 C0 12.06 0 6.12 0 0 Z " fill="#E0B662" transform="translate(276,92)"/>
<path d="M0 0 C3.9492568 0.55105909 7.34920174 1.38935371 11 3 C10.01 3.495 10.01 3.495 9 4 C9 4.66 9 5.32 9 6 C4.70042176 5.52226908 2.78280018 4.29813355 0 1 C0 0.67 0 0.34 0 0 Z " fill="#C6984C" transform="translate(336,337)"/>
<path d="M0 0 C1.2065625 0.0309375 1.2065625 0.0309375 2.4375 0.0625 C2.7675 2.0425 3.0975 4.0225 3.4375 6.0625 C0.4675 5.5675 0.4675 5.5675 -2.5625 5.0625 C-3.125 3.125 -3.125 3.125 -3.5625 1.0625 C-2.5625 0.0625 -2.5625 0.0625 0 0 Z " fill="#CB9D56" transform="translate(309.5625,259.9375)"/>
<path d="M0 0 C0.66 0 1.32 0 2 0 C5.07692308 5.41538462 5.07692308 5.41538462 4.6875 8.375 C4.460625 8.91125 4.23375 9.4475 4 10 C4.66 10 5.32 10 6 10 C6 12.31 6 14.62 6 17 C4.0990238 14.1485357 3.03734101 11.70289524 1.875 8.5 C1.52179688 7.5409375 1.16859375 6.581875 0.8046875 5.59375 C0 3 0 3 0 0 Z " fill="#DDBE85" transform="translate(371,183)"/>
<path d="M0 0 C2.31 0 4.62 0 7 0 C7 1.98 7 3.96 7 6 C4 6 4 6 1.8125 4.125 C0 2 0 2 0 0 Z " fill="#C29041" transform="translate(153,316)"/>
<path d="M0 0 C1.33735521 2.67471043 0.71006471 3.69340172 -0.1875 6.5 C-0.42855469 7.2940625 -0.66960937 8.088125 -0.91796875 8.90625 C-2.22818739 11.44154671 -3.37907206 12.00155126 -6 13 C-5.51675181 7.84535266 -2.81389239 4.18449681 0 0 Z " fill="#CEAB6F" transform="translate(366,287)"/>
<path d="M0 0 C0.66 1.32 1.32 2.64 2 4 C2 3.34 2 2.68 2 2 C2.66 2 3.32 2 4 2 C4.33 2.99 4.66 3.98 5 5 C4.34 5.66 3.68 6.32 3 7 C0.27130593 6.96712417 -2.2966618 6.43602229 -5 6 C-3.35 4.02 -1.7 2.04 0 0 Z " fill="#782337" transform="translate(242,263)"/>
<path d="M0 0 C1.65 0 3.3 0 5 0 C5.28875 0.763125 5.5775 1.52625 5.875 2.3125 C6.96269013 5.15029308 6.96269013 5.15029308 9 8 C8.67 8.99 8.34 9.98 8 11 C6.66375099 9.35653302 5.33107149 7.71016314 4 6.0625 C3.2575 5.14597656 2.515 4.22945312 1.75 3.28515625 C0 1 0 1 0 0 Z " fill="#73323F" transform="translate(166,173)"/>
<path d="M0 0 C5.75 0.75 5.75 0.75 8 3 C8 4.32 8 5.64 8 7 C7.01 7.33 6.02 7.66 5 8 C5 7.34 5 6.68 5 6 C4.34 5.67 3.68 5.34 3 5 C3.33 4.34 3.66 3.68 4 3 C2.68 2.67 1.36 2.34 0 2 C0 1.34 0 0.68 0 0 Z " fill="#CB9E59" transform="translate(204,344)"/>
<path d="M0 0 C3.93846154 4.30769231 3.93846154 4.30769231 4.25 7.8125 C4.1675 8.534375 4.085 9.25625 4 10 C4.99 10.33 5.98 10.66 7 11 C6.67 12.32 6.34 13.64 6 15 C3.43135272 13.71567636 3.053461 12.63365249 2 10 C2 8.68 2 7.36 2 6 C1.34 6 0.68 6 0 6 C0 4.02 0 2.04 0 0 Z " fill="#C2974A" transform="translate(153,281)"/>
<path d="M0 0 C3.32936078 0.55489346 6.17146592 1.11431062 9 3 C10.53487153 5.27388375 11.77533442 7.55066883 13 10 C9.74035658 8.51222697 7.06830707 6.64333184 4.25 4.4375 C3.45078125 3.81746094 2.6515625 3.19742188 1.828125 2.55859375 C1.22484375 2.04425781 0.6215625 1.52992188 0 1 C0 0.67 0 0.34 0 0 Z " fill="#E7CB92" transform="translate(301,168)"/>
<path d="M0 0 C0.86625 0.2784375 0.86625 0.2784375 1.75 0.5625 C4.20692525 1.04023546 5.64397534 0.75729364 8 0 C8 0.99 8 1.98 8 3 C6.68 3 5.36 3 4 3 C4 3.66 4 4.32 4 5 C2.02 5.33 0.04 5.66 -2 6 C-2 4.68 -2 3.36 -2 2 C-1.34 2 -0.68 2 0 2 C0 1.34 0 0.68 0 0 Z " fill="#E5B964" transform="translate(216,112)"/>
<path d="M0 0 C6.93 3.96 6.93 3.96 14 8 C12 9 12 9 10.08984375 8.546875 C9.37957031 8.28390625 8.66929687 8.0209375 7.9375 7.75 C7.22464844 7.49734375 6.51179687 7.2446875 5.77734375 6.984375 C4 6 4 6 3 3 C2.01 2.67 1.02 2.34 0 2 C0 1.34 0 0.68 0 0 Z " fill="#D5B57C" transform="translate(237,364)"/>
<path d="M0 0 C1.9375 0.375 1.9375 0.375 4 1 C5.4783226 3.95664519 5.06032783 6.74229737 5 10 C4.67 9.34 4.34 8.68 4 8 C3.34 8 2.68 8 2 8 C0.23537317 4.91190305 0 3.76687864 0 0 Z " fill="#CFA75D" transform="translate(145,264)"/>
<path d="M0 0 C1.32 0.33 2.64 0.66 4 1 C3.125 6.75 3.125 6.75 2 9 C0.125 8.6875 0.125 8.6875 -2 8 C-2.66 7.01 -3.32 6.02 -4 5 C-1.525 5.495 -1.525 5.495 1 6 C0.67 4.02 0.34 2.04 0 0 Z " fill="#CEA66D" transform="translate(312,260)"/>
<path d="M0 0 C0.33 0 0.66 0 1 0 C1 4.95 1 9.9 1 15 C0.01 15.33 -0.98 15.66 -2 16 C-2.33 16.66 -2.66 17.32 -3 18 C-2.19500136 11.96251023 -1.11517502 5.98729887 0 0 Z " fill="#DCBC8C" transform="translate(338,241)"/>
<path d="M0 0 C-5.37180176 2.62875405 -10.04492601 3.6083965 -16 4 C-14 1 -14 1 -11.7578125 0.234375 C-10.45457031 -0.00539063 -10.45457031 -0.00539063 -9.125 -0.25 C-8.26132813 -0.42015625 -7.39765625 -0.5903125 -6.5078125 -0.765625 C-4.02366804 -0.99778803 -2.35380006 -0.76635351 0 0 Z " fill="#EBCC85" transform="translate(253,103)"/>
<path d="M0 0 C0.33 0.66 0.66 1.32 1 2 C-0.1875 5.0625 -0.1875 5.0625 -2 8 C-4.1875 8.875 -4.1875 8.875 -6 9 C-6.33 10.32 -6.66 11.64 -7 13 C-7.74609375 11.296875 -7.74609375 11.296875 -8 9 C-6.34765625 6.640625 -6.34765625 6.640625 -4.0625 4.25 C-3.31097656 3.45078125 -2.55945313 2.6515625 -1.78515625 1.828125 C-1.19605469 1.22484375 -0.60695313 0.6215625 0 0 Z " fill="#D5BB8B" transform="translate(322,280)"/>
<path d="M0 0 C1.32 0.33 2.64 0.66 4 1 C2.35 3.64 0.7 6.28 -1 9 C-3 5 -3 5 -3 2 C-2.34 2 -1.68 2 -1 2 C-0.67 1.34 -0.34 0.68 0 0 Z " fill="#CFA969" transform="translate(371,312)"/>
<path d="M0 0 C0.99 0 1.98 0 3 0 C3 3.96 3 7.92 3 12 C2.34 12 1.68 12 1 12 C0.67 8.04 0.34 4.08 0 0 Z " fill="#D3B076" transform="translate(353,228)"/>
<path d="M0 0 C1.65 0.33 3.3 0.66 5 1 C5 1.99 5 2.98 5 4 C1.86501708 5.85776765 -0.37471432 6.20140476 -4 6 C-3.01 5.67 -2.02 5.34 -1 5 C-1.33 4.01 -1.66 3.02 -2 2 C-1.34 2 -0.68 2 0 2 C0 1.34 0 0.68 0 0 Z " fill="#DCB873" transform="translate(195,123)"/>
<path d="M0 0 C2.88437779 1.29299694 4.87219421 2.65941363 7 5 C6.67 5.66 6.34 6.32 6 7 C1.125 6.125 1.125 6.125 0 5 C-0.04063832 3.33382885 -0.042721 1.66611905 0 0 Z " fill="#CA9D55" transform="translate(162,326)"/>
<path d="M0 0 C0.33 0 0.66 0 1 0 C1.66 3.63 2.32 7.26 3 11 C1.02 10.34 -0.96 9.68 -3 9 C-2.01 6.03 -1.02 3.06 0 0 Z " fill="#E8CC96" transform="translate(298,157)"/>
<path d="M0 0 C1.32 0.33 2.64 0.66 4 1 C3.01 1 2.02 1 1 1 C1 1.66 1 2.32 1 3 C-0.27057182 3.47985967 -1.54146848 3.9588593 -2.8125 4.4375 C-3.87404297 4.83775391 -3.87404297 4.83775391 -4.95703125 5.24609375 C-6.62672396 5.86225186 -8.31157704 6.43719235 -10 7 C-10.33 6.01 -10.66 5.02 -11 4 C-7.17679443 2.57741188 -4.08718695 1.75957724 0 2 C0 1.34 0 0.68 0 0 Z " fill="#E5C78E" transform="translate(156,145)"/>
<path d="M0 0 C0 2 0 2 -1.4375 3.5625 C-5.13603446 5.63728762 -8.81945139 5.74094891 -13 6 C-9.40464172 2.97989905 -4.81374718 0 0 0 Z " fill="#E4C68B" transform="translate(179,112)"/>
<path d="M0 0 C2.93200474 2.85276137 5.64315404 5.65079784 8 9 C7.67 9.66 7.34 10.32 7 11 C3.50330109 8.55231076 1.37722181 6.62205378 0.375 2.3125 C0.25125 1.549375 0.1275 0.78625 0 0 Z " fill="#E6C88E" transform="translate(334,175)"/>
<path d="M0 0 C3.65316671 1.24976756 4.78065836 1.67098753 7 5 C6.625 7.1875 6.625 7.1875 6 9 C4.99406757 7.8803014 3.9954151 6.7540588 3 5.625 C2.443125 4.99851562 1.88625 4.37203125 1.3125 3.7265625 C0 2 0 2 0 0 Z " fill="#D5B57E" transform="translate(155,321)"/>
<path d="M0 0 C1.32 0.33 2.64 0.66 4 1 C1.03 4.96 1.03 4.96 -2 9 C-2.33 7.68 -2.66 6.36 -3 5 C-2.01 4.67 -1.02 4.34 0 4 C-0.33 3.01 -0.66 2.02 -1 1 C-0.67 0.67 -0.34 0.34 0 0 Z " fill="#D5AE7D" transform="translate(339,280)"/>
<path d="M0 0 C1.48165503 2.96331006 0.48358108 4.89704017 -0.3125 8.0625 C-0.57675781 9.14660156 -0.84101563 10.23070312 -1.11328125 11.34765625 C-2 14 -2 14 -4 15 C-3.63495936 9.33557626 -2.9445679 4.99296295 0 0 Z " fill="#D8BA85" transform="translate(398,261)"/>
<path d="M0 0 C0 0.66 0 1.32 0 2 C-0.66 2 -1.32 2 -2 2 C-2.33 2.99 -2.66 3.98 -3 5 C-5.375 5.625 -5.375 5.625 -8 6 C-8.66 5.34 -9.32 4.68 -10 4 C-8.71086513 3.32845067 -7.41859796 2.66291141 -6.125 2 C-5.40570313 1.62875 -4.68640625 1.2575 -3.9453125 0.875 C-2 0 -2 0 0 0 Z " fill="#E6C17E" transform="translate(158,122)"/>
<path d="M0 0 C0.33 0.66 0.66 1.32 1 2 C0.34 1.67 -0.32 1.34 -1 1 C-0.67 0.67 -0.34 0.34 0 0 Z M-5 3 C-4.01 3.33 -3.02 3.66 -2 4 C-2.99 4 -3.98 4 -5 4 C-5 3.67 -5 3.34 -5 3 Z M-12 4 C-9.69 4 -7.38 4 -5 4 C-5.99 5.485 -5.99 5.485 -7 7 C-9.97 6.505 -9.97 6.505 -13 6 C-12.67 5.34 -12.34 4.68 -12 4 Z " fill="#E5BD60" transform="translate(215,97)"/>
<path d="M0 0 C2.96175123 0.61277612 4.38058783 1.25372522 7 3 C7.6875 5.625 7.6875 5.625 8 8 C7.34 8 6.68 8 6 8 C6 7.34 6 6.68 6 6 C5.01 5.67 4.02 5.34 3 5 C3 4.34 3 3.68 3 3 C2.34 3 1.68 3 1 3 C0.67 2.01 0.34 1.02 0 0 Z " fill="#D1B080" transform="translate(165,333)"/>
<path d="M0 0 C1 4 1 4 -0.1875 6.6875 C-2 9 -2 9 -6 10 C-4.02 6.7 -2.04 3.4 0 0 Z " fill="#D0B174" transform="translate(329,270)"/>
<path d="M0 0 C2.875 -0.125 2.875 -0.125 6 0 C6.66 0.66 7.32 1.32 8 2 C7.01 2.495 7.01 2.495 6 3 C4.86649466 5.01669827 4.86649466 5.01669827 4 7 C3.67 6.01 3.34 5.02 3 4 C2.01979625 2.9805881 1.02196992 1.97753644 0 1 C0 0.67 0 0.34 0 0 Z " fill="#D6A953" transform="translate(224,233)"/>
<path d="M0 0 C0.99 0 1.98 0 3 0 C3.103125 0.639375 3.20625 1.27875 3.3125 1.9375 C3.539375 2.618125 3.76625 3.29875 4 4 C4.99 4.33 5.98 4.66 7 5 C7.33 6.98 7.66 8.96 8 11 C4.32966073 7.72291137 2.30718811 4.28477792 0 0 Z " fill="#E5C890" transform="translate(322,187)"/>
<path d="M0 0 C-1 3 -1 3 -2.70703125 3.984375 C-3.40183594 4.23703125 -4.09664062 4.4896875 -4.8125 4.75 C-5.49957031 5.01296875 -6.18664062 5.2759375 -6.89453125 5.546875 C-9.28143969 6.06056958 -10.70637773 5.76282269 -13 5 C-11.21046815 4.16209211 -9.41830305 3.32980604 -7.625 2.5 C-6.62726563 2.0359375 -5.62953125 1.571875 -4.6015625 1.09375 C-2 0 -2 0 0 0 Z " fill="#F4E1A6" transform="translate(237,85)"/>
<path d="M0 0 C0.99 1.32 1.98 2.64 3 4 C2.34 5.32 1.68 6.64 1 8 C0.34 8 -0.32 8 -1 8 C-1.33 5.69 -1.66 3.38 -2 1 C-1.34 0.67 -0.68 0.34 0 0 Z " fill="#C79644" transform="translate(140,289)"/>
<path d="M0 0 C0.99 0.33 1.98 0.66 3 1 C3.66666667 3 4.33333333 5 5 7 C3.68 7 2.36 7 1 7 C0 6 0 6 -0.0625 2.9375 C-0.041875 1.968125 -0.02125 0.99875 0 0 Z " fill="#CC9A4A" transform="translate(131,273)"/>
<path d="M0 0 C0.66 0.33 1.32 0.66 2 1 C2 1.66 2 2.32 2 3 C2.66 3 3.32 3 4 3 C4 4.65 4 6.3 4 8 C3.34 7.34 2.68 6.68 2 6 C1.01 6.495 1.01 6.495 0 7 C-2 4 -2 4 -2 1 C-1.34 0.67 -0.68 0.34 0 0 Z " fill="#823D4A" transform="translate(235,269)"/>
<path d="M0 0 C1.65 0 3.3 0 5 0 C5 0.66 5 1.32 5 2 C4.34 2 3.68 2 3 2 C2.71125 2.639375 2.4225 3.27875 2.125 3.9375 C1 6 1 6 -1 7 C-1.33 6.01 -1.66 5.02 -2 4 C-1.34 4 -0.68 4 0 4 C0 2.68 0 1.36 0 0 Z " fill="#884351" transform="translate(283,256)"/>
<path d="M0 0 C2.64 0.66 5.28 1.32 8 2 C8.33 3.32 8.66 4.64 9 6 C5.59687262 4.94124926 2.98646769 3.99097846 0 2 C0 1.34 0 0.68 0 0 Z " fill="#ECCE95" transform="translate(305,119)"/>
<path d="M0 0 C-0.66 1.65 -1.32 3.3 -2 5 C-4.97 4.505 -4.97 4.505 -8 4 C-4.5 0 -4.5 0 0 0 Z " fill="#D3B376" transform="translate(273,367)"/>
<path d="M0 0 C0.66 0.66 1.32 1.32 2 2 C1.34 3.32 0.68 4.64 0 6 C-1.32 5.67 -2.64 5.34 -4 5 C-3.6875 3.0625 -3.6875 3.0625 -3 1 C-2.01 0.67 -1.02 0.34 0 0 Z " fill="#C29141" transform="translate(196,353)"/>
<path d="M0 0 C0.66 0.33 1.32 0.66 2 1 C2.75 3.4375 2.75 3.4375 3 6 C2.34 6.66 1.68 7.32 1 8 C-0.98 4.535 -0.98 4.535 -3 1 C-2.01 0.67 -1.02 0.34 0 0 Z " fill="#813948" transform="translate(276,327)"/>
<path d="M0 0 C0 3.61537605 -0.89229241 5.11165997 -3 8 C-3.99 8 -4.98 8 -6 8 C-4.55746343 4.63408134 -2.66735273 2.48952921 0 0 Z " fill="#D7B87F" transform="translate(353,307)"/>
<path d="M0 0 C1.2077558 3.62326739 0.54311128 4.64146369 -1 8 C-2.32 8 -3.64 8 -5 8 C-5 6.68 -5 5.36 -5 4 C-3.68 4 -2.36 4 -1 4 C-0.67 2.68 -0.34 1.36 0 0 Z " fill="#CAA260" transform="translate(393,276)"/>
<path d="M0 0 C0.66 0 1.32 0 2 0 C1.54917531 1.46067199 1.08906463 2.91848032 0.625 4.375 C0.36976563 5.18710937 0.11453125 5.99921875 -0.1484375 6.8359375 C-1 9 -1 9 -3 11 C-3 9.02 -3 7.04 -3 5 C-2.01 4.67 -1.02 4.34 0 4 C0 2.68 0 1.36 0 0 Z " fill="#D5B98C" transform="translate(346,269)"/>
<path d="M0 0 C0.66 0 1.32 0 2 0 C1.4375 1.875 1.4375 1.875 0 4 C-3.625 5.25 -3.625 5.25 -7 6 C-6.34 4.68 -5.68 3.36 -5 2 C-3.35 2 -1.7 2 0 2 C0 1.34 0 0.68 0 0 Z " fill="#D4AD69" transform="translate(215,233)"/>
<path d="M0 0 C4.43090471 1.20842856 6.98112756 2.51668565 10 6 C7.0625 5.625 7.0625 5.625 4 5 C3.67 4.34 3.34 3.68 3 3 C0.98330173 1.86649466 0.98330173 1.86649466 -1 1 C-0.67 0.67 -0.34 0.34 0 0 Z " fill="#EAD19E" transform="translate(306,152)"/>
<path d="M0 0 C3 1 6 2 9 3 C8.67 3.99 8.34 4.98 8 6 C7.67 5.34 7.34 4.68 7 4 C5.68 4 4.36 4 3 4 C3 3.34 3 2.68 3 2 C1.68 1.67 0.36 1.34 -1 1 C-0.67 0.67 -0.34 0.34 0 0 Z " fill="#C49244" transform="translate(237,385)"/>
<path d="M0 0 C3.96 0.99 3.96 0.99 8 2 C8 2.66 8 3.32 8 4 C4.7 3.67 1.4 3.34 -2 3 C-1.34 2.01 -0.68 1.02 0 0 Z " fill="#C49243" transform="translate(243,371)"/>
<path d="M0 0 C1.9375 0.75 1.9375 0.75 4 2 C4.75 4.125 4.75 4.125 5 6 C3.02 5.34 1.04 4.68 -1 4 C-0.67 2.68 -0.34 1.36 0 0 Z " fill="#C48E3D" transform="translate(267,370)"/>
<path d="M0 0 C3.08089673 2.77280706 4.68775452 5.06326356 6 9 C3.525 8.01 3.525 8.01 1 7 C1.33 6.01 1.66 5.02 2 4 C1.34 4 0.68 4 0 4 C0 2.68 0 1.36 0 0 Z " fill="#D7B579" transform="translate(284,368)"/>
<path d="M0 0 C0.98120464 3.05263664 0.98120464 4.94736336 0 8 C-0.66 8 -1.32 8 -2 8 C-2 8.99 -2 9.98 -2 11 C-2.66 11 -3.32 11 -4 11 C-3.52269162 9.5410574 -3.04308958 8.08286504 -2.5625 6.625 C-2.29566406 5.81289063 -2.02882813 5.00078125 -1.75390625 4.1640625 C-1 2 -1 2 0 0 Z " fill="#D9BC87" transform="translate(334,259)"/>
<path d="M0 0 C0.99 0.66 1.98 1.32 3 2 C0.16569547 5.2542015 -1.68607774 6.5206753 -6 7 C-6 6.34 -6 5.68 -6 5 C-4.68 5 -3.36 5 -2 5 C-2 4.01 -2 3.02 -2 2 C-1.34 2 -0.68 2 0 2 C0 1.34 0 0.68 0 0 Z " fill="#D3B580" transform="translate(233,257)"/>
<path d="M0 0 C2.22825644 2.22825644 2.69239369 3.65761628 3.625 6.625 C4.01558594 7.85089844 4.01558594 7.85089844 4.4140625 9.1015625 C4.60742188 9.72804687 4.80078125 10.35453125 5 11 C4.34 11 3.68 11 3 11 C0 4.5 0 4.5 0 0 Z " fill="#DFC98C" transform="translate(345,191)"/>
<path d="M0 0 C0 1.32 0 2.64 0 4 C-0.99 4.33 -1.98 4.66 -3 5 C-3.66 5.66 -4.32 6.32 -5 7 C-5.1875 4.625 -5.1875 4.625 -5 2 C-2 0 -2 0 0 0 Z " fill="#EDC569" transform="translate(130,138)"/>
<path d="M0 0 C-0.1875 1.875 -0.1875 1.875 -1 4 C-3.5625 5.25 -3.5625 5.25 -6 6 C-3.84615385 0 -3.84615385 0 0 0 Z " fill="#EDC568" transform="translate(253,97)"/>
<path d="M0 0 C0.99 0.33 1.98 0.66 3 1 C2.67 2.65 2.34 4.3 2 6 C0.02 4.68 -1.96 3.36 -4 2 C-3.34 1.67 -2.68 1.34 -2 1 C-1.34 1.33 -0.68 1.66 0 2 C0 1.34 0 0.68 0 0 Z " fill="#D1AB6C" transform="translate(190,352)"/>
<path d="M0 0 C3.875 1.875 3.875 1.875 5 3 C5.04063832 4.66617115 5.042721 6.33388095 5 8 C2.27573689 5.64722731 1.1858237 3.37503669 0 0 Z " fill="#D7B57B" transform="translate(142,302)"/>
<path d="M0 0 C1.485 0.99 1.485 0.99 3 2 C2.37063561 4.93703384 1.37579827 7.33788628 0 10 C-0.19412181 8.52168779 -0.38012131 7.04230684 -0.5625 5.5625 C-0.66691406 4.73878906 -0.77132813 3.91507813 -0.87890625 3.06640625 C-0.91886719 2.38449219 -0.95882813 1.70257813 -1 1 C-0.67 0.67 -0.34 0.34 0 0 Z " fill="#D2A64F" transform="translate(317,214)"/>
<path d="M0 0 C2.125 0.9375 2.125 0.9375 4 2 C3.67 2.66 3.34 3.32 3 4 C0.4375 4.625 0.4375 4.625 -2 5 C-2 3.68 -2 2.36 -2 1 C-1.34 0.67 -0.68 0.34 0 0 Z " fill="#803446" transform="translate(291,196)"/>
<path d="M0 0 C-0.33 1.32 -0.66 2.64 -1 4 C-3.31 4 -5.62 4 -8 4 C-2.7826087 0 -2.7826087 0 0 0 Z " fill="#E4C885" transform="translate(166,118)"/>
<path d="M0 0 C4.455 2.97 4.455 2.97 9 6 C8.01 6.33 7.02 6.66 6 7 C2.8125 5.25 2.8125 5.25 0 3 C0 2.01 0 1.02 0 0 Z " fill="#F0D9A3" transform="translate(341,116)"/>
<path d="M0 0 C0.66 0.33 1.32 0.66 2 1 C-0.21934164 4.32901247 -1.34683329 4.75023244 -5 6 C-5 4.68 -5 3.36 -5 2 C-2.625 0.9375 -2.625 0.9375 0 0 Z " fill="#EFD694" transform="translate(242,82)"/>
<path d="M0 0 C2.875 0.1875 2.875 0.1875 6 1 C7.375 3.5625 7.375 3.5625 8 6 C4.08597051 4.73058503 2.20927127 3.48832306 0 0 Z " fill="#DAB788" transform="translate(195,360)"/>
<path d="M0 0 C2.475 0.495 2.475 0.495 5 1 C5.625 2.875 5.625 2.875 6 5 C5.34 5.66 4.68 6.32 4 7 C2.02 3.535 2.02 3.535 0 0 Z " fill="#935261" transform="translate(278,335)"/>
<path d="M0 0 C2.31 1.98 4.62 3.96 7 6 C6.01 6.33 5.02 6.66 4 7 C1.23609263 4.59660228 0.95934081 3.83736322 0 0 Z " fill="#D3AE72" transform="translate(189,328)"/>
<path d="M0 0 C2.64 0 5.28 0 8 0 C7.67 0.66 7.34 1.32 7 2 C4.6859378 2.73075648 2.35171131 3.40138258 0 4 C0 2.68 0 1.36 0 0 Z " fill="#CE9145" transform="translate(224,258)"/>
<path d="M0 0 C-2.6855594 2.6855594 -5.37621328 3.06049974 -9 4 C-8.67 3.01 -8.34 2.02 -8 1 C-5.29120665 -0.35439668 -2.99066732 -0.06501451 0 0 Z " fill="#E3C793" transform="translate(194,129)"/>
<path d="M0 0 C2.31 0.33 4.62 0.66 7 1 C7.33 1.99 7.66 2.98 8 4 C2.25 3.125 2.25 3.125 0 2 C0 1.34 0 0.68 0 0 Z " fill="#E7C97E" transform="translate(322,107)"/>
<path d="M0 0 C0.99 0.66 1.98 1.32 3 2 C1.35 2.33 -0.3 2.66 -2 3 C-2 3.66 -2 4.32 -2 5 C-2.99 4.67 -3.98 4.34 -5 4 C-3 1 -3 1 0 0 Z " fill="#C49344" transform="translate(276,384)"/>
<path d="M0 0 C2.31 0.66 4.62 1.32 7 2 C6.67 2.99 6.34 3.98 6 5 C5.01 5 4.02 5 3 5 C1.3125 2.5 1.3125 2.5 0 0 Z " fill="#DCC398" transform="translate(338,341)"/>
<path d="M0 0 C0.33 0.66 0.66 1.32 1 2 C-0.39789678 4.79579355 -2.2628997 5.59807058 -5 7 C-5.66 6.67 -6.32 6.34 -7 6 C-4.69 4.02 -2.38 2.04 0 0 Z " fill="#D7BA81" transform="translate(340,321)"/>
<path d="M0 0 C2.02054804 1.64169528 4.02043058 3.30911778 6 5 C6 5.33 6 5.66 6 6 C4.35 6 2.7 6 1 6 C0.67 4.02 0.34 2.04 0 0 Z " fill="#CFA96E" transform="translate(179,318)"/>
<path d="M0 0 C-0.66 0 -1.32 0 -2 0 C-2 0.66 -2 1.32 -2 2 C-3.98 2.99 -3.98 2.99 -6 4 C-6.66 3.01 -7.32 2.02 -8 1 C-3.375 -1.125 -3.375 -1.125 0 0 Z " fill="#D4B987" transform="translate(329,299)"/>
<path d="M0 0 C0.99 0.33 1.98 0.66 3 1 C3 2.32 3 3.64 3 5 C1.35 5.33 -0.3 5.66 -2 6 C-1.34 4.02 -0.68 2.04 0 0 Z " fill="#5F081A" transform="translate(278,289)"/>
<path d="M0 0 C2.6855594 2.6855594 3.06049974 5.37621328 4 9 C3.01 9 2.02 9 1 9 C0.67 6.03 0.34 3.06 0 0 Z " fill="#D6B779" transform="translate(390,175)"/>
<path d="M0 0 C3.68754757 0.49831724 5.60490662 1.10067643 8 4 C5 5 5 5 2.875 4.25 C1 3 1 3 0 0 Z " fill="#822D4A" transform="translate(268,176)"/>
<path d="M0 0 C1.65 0 3.3 0 5 0 C5 0.66 5 1.32 5 2 C3.02 2.66 1.04 3.32 -1 4 C-0.67 2.68 -0.34 1.36 0 0 Z " fill="#D9B579" transform="translate(180,132)"/>
<path d="M0 0 C2.03833424 1.2739589 4.03852126 2.61061923 6 4 C6 4.66 6 5.32 6 6 C4.68 6 3.36 6 2 6 C0 3 0 3 0 0 Z " fill="#EAD39D" transform="translate(358,130)"/>
<path d="M0 0 C2.31 0.33 4.62 0.66 7 1 C7 1.99 7 2.98 7 4 C4.97954558 3.39816251 2.97888961 2.72693904 1 2 C0.67 1.34 0.34 0.68 0 0 Z " fill="#EDD49F" transform="translate(318,127)"/>
<path d="M0 0 C2.625 -0.1875 2.625 -0.1875 5 0 C3.68 1.32 2.36 2.64 1 4 C0.01 3.67 -0.98 3.34 -2 3 C-1.34 2.01 -0.68 1.02 0 0 Z " fill="#ECCC76" transform="translate(244,82)"/>
</svg>
